<?xml version="1.0" encoding="UTF-8"?> <svg xmlns="http://www.w3.org/2000/svg" xmlns:xlink="http://www.w3.org/1999/xlink" version="1.1" id="Layer_1" x="0px" y="0px" width="487.3px" height="234px" viewBox="0 0 487.3 234" style="enable-background:new 0 0 487.3 234;" xml:space="preserve"> <style type="text/css"> .st0{fill:#BC4B20;} .st1{fill:#FFFFFF;} </style> <path class="st0" d="M204.6,89.9c0.7,0.6,5,4.3,5.8,4.9c6,5.1,6.6,5.3,6.7,5.2c-0.3-0.5-4.3-4.2-7.2-6.9 c-11.6-10.9-22.6-22.1-36-30.6c-8.6-5.5-17.3-10.8-26.6-14.9c-4.6-2-9.5-3.5-14.5-4.5c-10.8-2.3-21.2-3.3-32,0 c-10.1,3.1-18.6,9-22.2,19.3C76,69.6,77.1,78.7,82.5,83c1.5,1.2,4.2,2.5,6.3,2.3c2.3-0.2,4.2-2.2,3.5-4.6c-0.7-2.2-3.4-2.9-5.3-1.6 c-0.2,0.2-0.7,0.6-0.9,0.1c-1-2.4,0.7-8.3,5.5-10.9c2.4-1.3,4-3.3,3.8-6.2c0-0.3,0-0.7,0-1.5c0.9,0.7,1.4,1.1,1.9,1.5 c7.2,6.7,12.7-1.7,17.3-7.1c2.1-2.4,5.3-4.8,9-6c-0.9,0.7-1.6,1.6-1.9,2.5c-2.7,7.4,3.8,11.9,8.2,12.7c10.4,1.7,21.5-0.6,32,1.2 c9.8,1.7,18.6,4.9,27.2,11.4C195.5,81.9,198.2,84.7,204.6,89.9z"></path> <path class="st0" d="M171.8,22.2c-2.2-11.3-11.2-13.5-20.3-18.2c-1.3-0.7-1.7-1-3.7-1.9c-1.4,3.5-2.2,5.7-3,8.9 c-1.1,4.7-1,9.3,0.8,13.9c3.7,9.7,12.1,15.7,20.2,21.7c1.4,1,2.8,1.9,4.1,2.9c3.1,2.2,6.1,4.6,9.1,6.9c1.9,1.5,3.9,3,5.8,4.6 c1.7,1.3,3.4,2.7,5.2,4c0.1,0.1,0.9,0.7,0.8,0.4c-0.1-0.2-0.5-0.5-0.6-0.6c-0.3-0.3-1.1-1-1.4-1.3c-1.4-1.4-2.5-2.6-3.5-3.8 c-1.8-2.2-3.6-4.8-4.9-7.4C174.7,41.4,174,33.9,171.8,22.2z"></path> <path class="st0" d="M181.7,99.6c-2.7,0.6-5.2,1.5-7.8,2.4c-1.1,0.4-2.1,0.8-3.2,1.1c-9.8,3.3-20.7,4.1-30.1-0.9 c-4-2.1-7.7-4.7-11.3-7.4c-1.4-1-2.9-2.1-4.6-3.3c0.5-0.3,0.9-0.4,1.2-0.5c4.1-1.2,8.2-2.4,12.3-3.7c3.3-1.1,6.6-2,10-2.8 c1.6-0.4,3.3-0.8,4.9-1.1c5.4-1.2,10.9-1.3,16.4-0.4c11.8,2,23,9,33.4,15.6c1.6,1,7,4.2,10.6,7c-3.9-2.3-10.9-5-12-5.4 C194.4,97.8,188.9,98.1,181.7,99.6z"></path> <path class="st0" d="M152.4,75.2c3.8,0.2,7.6,1,11.3,1.5c-5.9-1.4-11.9-2.5-17.9-2.9c-10.5-0.7-22.2,2-31.5,6.9 c-3.6,1.9-6.9,3.9-9.7,6.9c-3.2,3.4-4.1,9.1,0,10.8c2.1,0.9,5,0,6.7-2c4.2-5.1,8-11,13.6-14.5c5.2-3.2,11-5.3,17.1-6.2 C145.3,75.2,149,75,152.4,75.2z"></path> <path class="st0" d="M204.8,43.3c1.5-10.3,0.5-21.1-6.1-29.5c-2.8-3.6-6-6.7-9.2-9.8c-1.3-1.2-2.6-2.5-4.1-3.9 c-0.2,0.5-0.2,0.9-0.3,1.3c-0.5,4.2-0.9,8.5-1.5,12.7c-0.7,5.1-1.1,10.2-1.3,15.3c-0.2,5.5,0.6,11,2.4,16.2 c4,11.3,12.8,21.2,21.1,30.3c1.3,1.4,5.4,6.1,8.7,9.2c-2.9-3.4-6.8-9.9-7.4-10.9c-3.7-6.5-4.3-11.9-4-19.3 C203.3,50.8,204.2,47.1,204.8,43.3z"></path> <path class="st0" d="M303.3,49c-3.5-0.3-6.3,0.3-8.3,3.4c-3.1,4.9-1,11,4.8,13.2c4.6,1.8,9.1-1,11.3-4.6c3.3-5.2,3.1-11,2.1-16.9 c-0.9-5-3.2-9.6-6.2-13.3c-2.5-3.3-6-6.5-9.7-8.9c-11.6-7.5-24.6-11-38.3-8.4c-2.7,0.5-5.3,1.5-7.9,2.3c-7.8,2.4-14.2,7-19.7,12.9 c-4,4.2-7.3,9.1-9.7,14.5c-13.3,30.7,3.2,61.8,30.4,77c11,6.1,23.5,9.3,36,9.2c0.4,0,0.8,0,1.3,0c-14.9-1.6-29.7-5.9-42.2-14.2 c-3.2-2.1-6.2-4.5-9-7.1c-11-10.4-17.6-23.8-18.5-39.1c-0.2-3.7-0.1-7.4,0.7-11.1c1-4.5,2.3-9,4.1-13.2c1.7-4.1,3.9-7.8,6.6-11.3 c4.8-6.1,10.5-11.1,17.6-14.1c6.9-3,14.5-4.1,22-3.6c2.9,0.2,5.8,0.6,8.6,1.4c3.3,0.9,6.6,1.8,9.6,3.5c6.6,3.8,12.5,10.3,14.8,18 C304.5,41.5,304.5,49,303.3,49z"></path> <path class="st0" d="M323.9,37.2c-3.5-5.8-7.6-10.8-13.1-14.8c-1.1-0.8-2.2-1.6-3.4-2.5c-1.2-0.8-1.8-1.1-3.1-2 c-0.5-0.3-1.4-0.8-0.8-0.4c2,1.3,3.7,2.7,5.5,4.1c2.4,1.8,4.4,3.9,6.3,6.2c5.4,6.7,9.1,14,9.8,22.7c0.1,1.5,0.1,3,0,4.4 c-0.4,7.1-3.6,13.6-8.4,17.6c-2.6,2.2-5.7,3.8-9,4.6c-1.6,0.4-3.2,0.9-4.3,2.2c-1.6,2-3,5-2.4,8.1c0.6,3.6,4,6.3,7,7.1 c5.5,1.5,11-1.8,14.6-5.8c3.8-4.3,5.8-8.9,7.5-14.7c2.2-7.6,1.5-16.3-0.7-24.3C328.2,45.3,326.2,41,323.9,37.2z"></path> <path class="st0" d="M295.7,109.9c5,2.6,11.5,4.6,17.4,5.6c10.4,1.8,22.3,0.5,32.1-3.3c3.8-1.5,7.3-3.1,10.5-5.8 c3.6-3,5.1-8.6,1.3-10.7c-2-1.1-4.9-0.6-6.8,1.3c-4.8,4.6-9.2,10.1-15.2,12.9c-5.5,2.6-11.6,4-17.6,4.2c-3.4,0.1-7.2-0.2-10.5-0.7 C303,112.7,299,111.1,295.7,109.9z"></path> <path class="st0" d="M239.8,85.3c2.6,4.5,6,8.6,9.7,12.3c2.6,2.6,5.3,5,8.1,7.3c6.9,5.6,13.8,9.2,22,12.5 c11.1,4.4,17.8,6.4,32.1,7.1c0.4,0,0.7,0,1.1,0.1c1.8,0.1,5.5,0,7.7-0.1c0.2,0,0.4,0,0.6,0c1.7-0.1,4.8-0.5,5-0.6 c-1.4-0.1-3.4,0.2-5.2,0.1c-0.4,0-0.8,0-1.2,0c-1.1,0-2,0-3.1-0.1c-1.7-0.1-3.3-0.3-4.9-0.5c-9.4-1.3-18.3-4.6-26.1-10.6 c-1.1-0.9-2.2-1.8-3.2-2.7c-7.3-7-12-16.7-13.2-26.7c-0.5-4.4,0.7-9.5,0.8-14.4c0.1-2.9-1.1-6-2.9-7.7c-2-2-5.7-3-8.2-1.6 c-2,1.1-3.3,3-3.7,5.6c0.2-1.2-2.5-3.9-3.2-4.7c-1.2-1.3-2.6-2.2-4.1-3.1c-3.4-2.2-6.3-3.8-9.1-6.8c-0.4-0.5-1.9-1.9-2.3-2.7 c-0.4,0.9-0.8,2.9-1,3.8C231.8,65.8,234,75.1,239.8,85.3z"></path> <path class="st0" d="M239.9,126c-4-2.1-11.1-4.4-12.3-4.8c-7.1-2.2-12.6-1.6-19.7,0.3c-2.7,0.7-5.2,1.7-7.7,2.8 c-1,0.4-2.1,0.9-3.2,1.3c-9.7,3.7-20.5,5-30.1,0.5c-4.1-1.9-7.9-4.3-11.6-6.9c-1.4-1-3-2-4.7-3.1c0.5-0.3,0.9-0.4,1.2-0.5 c4-1.4,8.1-2.7,12.1-4.2c3.2-1.2,6.5-2.3,9.9-3.3c1.6-0.5,3.2-0.9,4.8-1.4c5.3-1.4,10.9-1.9,16.3-1.2c11.9,1.5,23.4,7.9,34.1,14 C230.7,120.5,236.2,123.5,239.9,126z"></path> <g> <path class="st1" d="M56.5,167.3c-1.6-11.1-6.4-15.4-17.9-15.7v49c0,7.1,1,8,9.1,8.6v2.3H14.5v-2.3c8-0.7,9-1.7,9-8.6v-49 c-11.5,0.4-16.4,4.7-18,15.7H2.9l0.3-18.7H59l0.2,18.7H56.5z"></path> <path class="st1" d="M92.5,211.5v-2.3l3-0.3c3.1-0.3,4.3-1,4.3-3.1s-1.1-5.3-4.3-12.7H74.5l-1.2,3.2c-1.1,2.9-2.9,6.8-2.9,9 c0,2.4,2,3.4,7.5,3.8v2.3H59.2v-2.3c4.3-0.7,5.7-2.4,9.2-11.2L89,147.3h2.6l20.7,48.6c4.7,11.3,6.4,13.3,10.2,13.3v2.3H92.5z M84.7,167l-8.7,22.6h18.1L84.7,167z"></path> <path class="st1" d="M181,211.5h-53.7v-2.3c6.8-0.8,8-1.9,8-6.8v-44.5c0-5.3-1.7-6.6-8-7v-2.3l32.4-0.1v2.3 c-8.1,0.4-9.3,1.6-9.3,9.2v43.2c0,4,1.9,5.4,7.9,5.4c7.7,0,12-1.7,15.8-5.1c3.2-2.9,5.6-7.4,8.1-13.1h2.7L181,211.5z"></path> <path class="st1" d="M189.5,211.5v-2.3c7-0.7,8.7-1.8,8.7-7.5v-43.7c0-5.2-2-6.5-8.7-7v-2.3H222v2.3c-6.9,0.3-8.8,1.8-8.8,7v43.7 c0,6,1.8,7.1,8.8,7.5v2.3H189.5z"></path> <path class="st1" d="M280.3,167.3c-1.6-11.1-6.4-15.4-17.9-15.7v49c0,7.1,1,8,9.1,8.6v2.3h-33.2v-2.3c8-0.7,9-1.7,9-8.6v-49 c-11.5,0.4-16.4,4.7-18,15.7h-2.7l0.3-18.7h55.8l0.2,18.7H280.3z"></path> <path class="st1" d="M341.8,211.5h-54.4v-2.3c6.9-0.7,8.2-2.2,8.2-7.1v-44.6c0-4.7-1.8-6.2-8.2-6.6v-2.3H341v18.7h-2.3 c-2.1-12.5-6.9-15.5-22.1-15.5c-4.8,0-6,1.5-6,5v20.9c9.9-0.1,14-3.1,15.1-13.9h2.4v31.5h-2.4c-0.9-11.1-4.9-14.4-15.1-14.4v22.5 c0,4,1.7,5.2,7.7,5.2c7.3,0,12.6-1.4,16.9-5c3.2-2.6,4.8-5.4,7.6-11.4h2.6L341.8,211.5z"></path> <path class="st1" d="M411.9,199.7c-8.7,10.7-16.1,13.6-26.8,13.6c-20,0-32.6-13.7-32.6-31.8c0-19.7,13.3-34.2,32.3-34.2 c4.5,0,9.1,1,14.5,3.3c2.1,0.9,3.3,1.3,4.3,1.3c1.8,0,2.7-0.9,4.1-4.3h2.5v21.9h-2.3c-1.8-5-4-8.1-6.2-10.7 c-4.3-5.1-9.3-8.4-15.5-8.4c-9.8,0-17.1,10.5-17.1,29.1c0,9.4,1.1,16.2,5,22.3c2.7,4.3,8.2,7.1,13.7,7.1c4.1,0,8-1.1,11.7-3.2 c3-1.7,5.6-4,9.7-8.3L411.9,199.7z"></path> <path class="st1" d="M454,211.5v-2.3c6.8-0.7,8.3-2,8.3-6.8v-21.2h-22.4v21.2c0,4.9,1.5,6,8.3,6.8v2.3h-31.3v-2.3 c6.5-0.8,7.9-1.9,7.9-6.8v-44.6c0-5.1-1.7-6.3-7.9-6.9v-2.3h31.3v2.3c-6.5,0.5-8.3,1.7-8.3,6.9v19h22.4v-19c0-5.2-1.8-6.4-8.3-6.9 v-2.3h31.5v2.3c-6.3,0.5-8.2,1.9-8.2,6.9v44.6c0,4.9,1.5,6,8.2,6.8v2.3H454z"></path> </g> <g> <polygon class="st0" points="145,132.4 0,130.1 145,127.8 "></polygon> <polygon class="st0" points="342.3,127.8 487.3,130.1 342.3,132.4 "></polygon> <path class="st0" d="M0,232.5c161.2-2,326.1-2,487.3,0C326.1,234.5,161.2,234.5,0,232.5z"></path> </g> </svg> 